<svg xmlns="http://www.w3.org/2000/svg" width="651" height="215" viewBox="0 0 651 215">
  <style>
    .bg { fill: #0d1117; stroke: #30363d; stroke-width: 1px; }
    .title { font-family: -apple-system, 'Segoe UI', Helvetica, Arial, sans-serif; font-size: 15px; fill: #e6edf3; font-weight: 600; }
    .subtitle { font-family: -apple-system, 'Segoe UI', Helvetica, Arial, sans-serif; font-size: 11px; fill: #8b949e; }
    .axis { font-family: -apple-system, 'Segoe UI', Helvetica, Arial, sans-serif; font-size: 10px; fill: #8b949e; }
  </style>
  <rect x="0.5" y="0.5" width="650" height="214" rx="10" class="bg"/>
  <text x="24" y="34" class="title">Year Activity Matrix</text>
  <text x="24" y="52" class="subtitle">521 contributions in the last year</text>
  <text x="55" y="66" class="axis">Jan</text>
  <text x="99" y="66" class="axis">Feb</text>
  <text x="154" y="66" class="axis">Mar</text>
  <text x="198" y="66" class="axis">Apr</text>
  <text x="242" y="66" class="axis">May</text>
  <text x="297" y="66" class="axis">Jun</text>
  <text x="341" y="66" class="axis">Jul</text>
  <text x="385" y="66" class="axis">Aug</text>
  <text x="440" y="66" class="axis">Sep</text>
  <text x="484" y="66" class="axis">Oct</text>
  <text x="528" y="66" class="axis">Nov</text>
  <text x="583" y="66" class="axis">Dec</text>
  <text x="20" y="97" class="axis" text-anchor="end">Mon</text>
  <text x="20" y="119" class="axis" text-anchor="end">Wed</text>
  <text x="20" y="141" class="axis" text-anchor="end">Fri</text>
  <rect x="55" y="78" width="9" height="9" rx="2.4" fill="#161b22"/>
  <rect x="55" y="89" width="9" height="9" rx="2.4" fill="#006d32"/>
  <rect x="55" y="100" width="9" height="9" rx="2.4" fill="#161b22"/>
  <rect x="55" y="111" width="9" height="9" rx="2.4" fill="#0e4429"/>
  <rect x="55" y="122" width="9" height="9" rx="2.4" fill="#161b22"/>
  <rect x="55" y="133" width="9" height="9" rx="2.4" fill="#161b22"/>
  <rect x="55" y="144" width="9" height="9" rx="2.4" fill="#161b22"/>
  <rect x="66" y="78" width="9" height="9" rx="2.4" fill="#161b22"/>
  <rect x="66" y="89" width="9" height="9" rx="2.4" fill="#161b22"/>
  <rect x="66" y="100" width="9" height="9" rx="2.4" fill="#161b22"/>
  <rect x="66" y="111" width="9" height="9" rx="2.4" fill="#0e4429"/>
  <rect x="66" y="122" width="9" height="9" rx="2.4" fill="#26a641"/>
  <rect x="66" y="133" width="9" height="9" rx="2.4" fill="#161b22"/>
  <rect x="66" y="144" width="9" height="9" rx="2.4" fill="#161b22"/>
  <rect x="77" y="78" width="9" height="9" rx="2.4" fill="#006d32"/>
  <rect x="77" y="89" width="9" height="9" rx="2.4" fill="#0e4429"/>
  <rect x="77" y="100" width="9" height="9" rx="2.4" fill="#0e4429"/>
  <rect x="77" y="111" width="9" height="9" rx="2.4" fill="#39d353"/>
  <rect x="77" y="122" width="9" height="9" rx="2.4" fill="#161b22"/>
  <rect x="77" y="133" width="9" height="9" rx="2.4" fill="#26a641"/>
  <rect x="77" y="144" width="9" height="9" rx="2.4" fill="#161b22"/>
  <rect x="88" y="78" width="9" height="9" rx="2.4" fill="#161b22"/>
  <rect x="88" y="89" width="9" height="9" rx="2.4" fill="#161b22"/>
  <rect x="88" y="100" width="9" height="9" rx="2.4" fill="#26a641"/>
  <rect x="88" y="111" width="9" height="9" rx="2.4" fill="#161b22"/>
  <rect x="88" y="122" width="9" height="9" rx="2.4" fill="#006d32"/>
  <rect x="88" y="133" width="9" height="9" rx="2.4" fill="#006d32"/>
  <rect x="88" y="144" width="9" height="9" rx="2.4" fill="#161b22"/>
  <rect x="99" y="78" width="9" height="9" rx="2.4" fill="#161b22"/>
  <rect x="99" y="89" width="9" height="9" rx="2.4" fill="#161b22"/>
  <rect x="99" y="100" width="9" height="9" rx="2.4" fill="#161b22"/>
  <rect x="99" y="111" width="9" height="9" rx="2.4" fill="#006d32"/>
  <rect x="99" y="122" width="9" height="9" rx="2.4" fill="#0e4429"/>
  <rect x="99" y="133" width="9" height="9" rx="2.4" fill="#161b22"/>
  <rect x="99" y="144" width="9" height="9" rx="2.4" fill="#161b22"/>
  <rect x="110" y="78" width="9" height="9" rx="2.4" fill="#161b22"/>
  <rect x="110" y="89" width="9" height="9" rx="2.4" fill="#26a641"/>
  <rect x="110" y="100" width="9" height="9" rx="2.4" fill="#006d32"/>
  <rect x="110" y="111" width="9" height="9" rx="2.4" fill="#161b22"/>
  <rect x="110" y="122" width="9" height="9" rx="2.4" fill="#0e4429"/>
  <rect x="110" y="133" width="9" height="9" rx="2.4" fill="#0e4429"/>
  <rect x="110" y="144" width="9" height="9" rx="2.4" fill="#0e4429"/>
  <rect x="121" y="78" width="9" height="9" rx="2.4" fill="#161b22"/>
  <rect x="121" y="89" width="9" height="9" rx="2.4" fill="#39d353"/>
  <rect x="121" y="100" width="9" height="9" rx="2.4" fill="#161b22"/>
  <rect x="121" y="111" width="9" height="9" rx="2.4" fill="#0e4429"/>
  <rect x="121" y="122" width="9" height="9" rx="2.4" fill="#006d32"/>
  <rect x="121" y="133" width="9" height="9" rx="2.4" fill="#161b22"/>
  <rect x="121" y="144" width="9" height="9" rx="2.4" fill="#161b22"/>
  <rect x="132" y="78" width="9" height="9" rx="2.4" fill="#161b22"/>
  <rect x="132" y="89" width="9" height="9" rx="2.4" fill="#26a641"/>
  <rect x="132" y="100" width="9" height="9" rx="2.4" fill="#0e4429"/>
  <rect x="132" y="111" width="9" height="9" rx="2.4" fill="#26a641"/>
  <rect x="132" y="122" width="9" height="9" rx="2.4" fill="#161b22"/>
  <rect x="132" y="133" width="9" height="9" rx="2.4" fill="#006d32"/>
  <rect x="132" y="144" width="9" height="9" rx="2.4" fill="#161b22"/>
  <rect x="143" y="78" width="9" height="9" rx="2.4" fill="#161b22"/>
  <rect x="143" y="89" width="9" height="9" rx="2.4" fill="#26a641"/>
  <rect x="143" y="100" width="9" height="9" rx="2.4" fill="#39d353"/>
  <rect x="143" y="111" width="9" height="9" rx="2.4" fill="#0e4429"/>
  <rect x="143" y="122" width="9" height="9" rx="2.4" fill="#006d32"/>
  <rect x="143" y="133" width="9" height="9" rx="2.4" fill="#161b22"/>
  <rect x="143" y="144" width="9" height="9" rx="2.4" fill="#0e4429"/>
  <rect x="154" y="78" width="9" height="9" rx="2.4" fill="#006d32"/>
  <rect x="154" y="89" width="9" height="9" rx="2.4" fill="#26a641"/>
  <rect x="154" y="100" width="9" height="9" rx="2.4" fill="#161b22"/>
  <rect x="154" y="111" width="9" height="9" rx="2.4" fill="#0e4429"/>
  <rect x="154" y="122" width="9" height="9" rx="2.4" fill="#006d32"/>
  <rect x="154" y="133" width="9" height="9" rx="2.4" fill="#161b22"/>
  <rect x="154" y="144" width="9" height="9" rx="2.4" fill="#161b22"/>
  <rect x="165" y="78" width="9" height="9" rx="2.4" fill="#161b22"/>
  <rect x="165" y="89" width="9" height="9" rx="2.4" fill="#161b22"/>
  <rect x="165" y="100" width="9" height="9" rx="2.4" fill="#26a641"/>
  <rect x="165" y="111" width="9" height="9" rx="2.4" fill="#161b22"/>
  <rect x="165" y="122" width="9" height="9" rx="2.4" fill="#161b22"/>
  <rect x="165" y="133" width="9" height="9" rx="2.4" fill="#0e4429"/>
  <rect x="165" y="144" width="9" height="9" rx="2.4" fill="#0e4429"/>
  <rect x="176" y="78" width="9" height="9" rx="2.4" fill="#161b22"/>
  <rect x="176" y="89" width="9" height="9" rx="2.4" fill="#0e4429"/>
  <rect x="176" y="100" width="9" height="9" rx="2.4" fill="#26a641"/>
  <rect x="176" y="111" width="9" height="9" rx="2.4" fill="#26a641"/>
  <rect x="176" y="122" width="9" height="9" rx="2.4" fill="#26a641"/>
  <rect x="176" y="133" width="9" height="9" rx="2.4" fill="#161b22"/>
  <rect x="176" y="144" width="9" height="9" rx="2.4" fill="#161b22"/>
  <rect x="187" y="78" width="9" height="9" rx="2.4" fill="#006d32"/>
  <rect x="187" y="89" width="9" height="9" rx="2.4" fill="#39d353"/>
  <rect x="187" y="100" width="9" height="9" rx="2.4" fill="#161b22"/>
  <rect x="187" y="111" width="9" height="9" rx="2.4" fill="#161b22"/>
  <rect x="187" y="122" width="9" height="9" rx="2.4" fill="#161b22"/>
  <rect x="187" y="133" width="9" height="9" rx="2.4" fill="#161b22"/>
  <rect x="187" y="144" width="9" height="9" rx="2.4" fill="#161b22"/>
  <rect x="198" y="78" width="9" height="9" rx="2.4" fill="#161b22"/>
  <rect x="198" y="89" width="9" height="9" rx="2.4" fill="#161b22"/>
  <rect x="198" y="100" width="9" height="9" rx="2.4" fill="#0e4429"/>
  <rect x="198" y="111" width="9" height="9" rx="2.4" fill="#161b22"/>
  <rect x="198" y="122" width="9" height="9" rx="2.4" fill="#0e4429"/>
  <rect x="198" y="133" width="9" height="9" rx="2.4" fill="#39d353"/>
  <rect x="198" y="144" width="9" height="9" rx="2.4" fill="#0e4429"/>
  <rect x="209" y="78" width="9" height="9" rx="2.4" fill="#161b22"/>
  <rect x="209" y="89" width="9" height="9" rx="2.4" fill="#006d32"/>
  <rect x="209" y="100" width="9" height="9" rx="2.4" fill="#161b22"/>
  <rect x="209" y="111" width="9" height="9" rx="2.4" fill="#26a641"/>
  <rect x="209" y="122" width="9" height="9" rx="2.4" fill="#26a641"/>
  <rect x="209" y="133" width="9" height="9" rx="2.4" fill="#26a641"/>
  <rect x="209" y="144" width="9" height="9" rx="2.4" fill="#0e4429"/>
  <rect x="220" y="78" width="9" height="9" rx="2.4" fill="#161b22"/>
  <rect x="220" y="89" width="9" height="9" rx="2.4" fill="#161b22"/>
  <rect x="220" y="100" width="9" height="9" rx="2.4" fill="#006d32"/>
  <rect x="220" y="111" width="9" height="9" rx="2.4" fill="#161b22"/>
  <rect x="220" y="122" width="9" height="9" rx="2.4" fill="#161b22"/>
  <rect x="220" y="133" width="9" height="9" rx="2.4" fill="#161b22"/>
  <rect x="220" y="144" width="9" height="9" rx="2.4" fill="#161b22"/>
  <rect x="231" y="78" width="9" height="9" rx="2.4" fill="#161b22"/>
  <rect x="231" y="89" width="9" height="9" rx="2.4" fill="#161b22"/>
  <rect x="231" y="100" width="9" height="9" rx="2.4" fill="#161b22"/>
  <rect x="231" y="111" width="9" height="9" rx="2.4" fill="#161b22"/>
  <rect x="231" y="122" width="9" height="9" rx="2.4" fill="#161b22"/>
  <rect x="231" y="133" width="9" height="9" rx="2.4" fill="#161b22"/>
  <rect x="231" y="144" width="9" height="9" rx="2.4" fill="#0e4429"/>
  <rect x="242" y="78" width="9" height="9" rx="2.4" fill="#161b22"/>
  <rect x="242" y="89" width="9" height="9" rx="2.4" fill="#161b22"/>
  <rect x="242" y="100" width="9" height="9" rx="2.4" fill="#161b22"/>
  <rect x="242" y="111" width="9" height="9" rx="2.4" fill="#161b22"/>
  <rect x="242" y="122" width="9" height="9" rx="2.4" fill="#161b22"/>
  <rect x="242" y="133" width="9" height="9" rx="2.4" fill="#26a641"/>
  <rect x="242" y="144" width="9" height="9" rx="2.4" fill="#006d32"/>
  <rect x="253" y="78" width="9" height="9" rx="2.4" fill="#161b22"/>
  <rect x="253" y="89" width="9" height="9" rx="2.4" fill="#161b22"/>
  <rect x="253" y="100" width="9" height="9" rx="2.4" fill="#161b22"/>
  <rect x="253" y="111" width="9" height="9" rx="2.4" fill="#161b22"/>
  <rect x="253" y="122" width="9" height="9" rx="2.4" fill="#161b22"/>
  <rect x="253" y="133" width="9" height="9" rx="2.4" fill="#26a641"/>
  <rect x="253" y="144" width="9" height="9" rx="2.4" fill="#161b22"/>
  <rect x="264" y="78" width="9" height="9" rx="2.4" fill="#006d32"/>
  <rect x="264" y="89" width="9" height="9" rx="2.4" fill="#0e4429"/>
  <rect x="264" y="100" width="9" height="9" rx="2.4" fill="#161b22"/>
  <rect x="264" y="111" width="9" height="9" rx="2.4" fill="#0e4429"/>
  <rect x="264" y="122" width="9" height="9" rx="2.4" fill="#161b22"/>
  <rect x="264" y="133" width="9" height="9" rx="2.4" fill="#0e4429"/>
  <rect x="264" y="144" width="9" height="9" rx="2.4" fill="#006d32"/>
  <rect x="275" y="78" width="9" height="9" rx="2.4" fill="#006d32"/>
  <rect x="275" y="89" width="9" height="9" rx="2.4" fill="#0e4429"/>
  <rect x="275" y="100" width="9" height="9" rx="2.4" fill="#006d32"/>
  <rect x="275" y="111" width="9" height="9" rx="2.4" fill="#0e4429"/>
  <rect x="275" y="122" width="9" height="9" rx="2.4" fill="#39d353"/>
  <rect x="275" y="133" width="9" height="9" rx="2.4" fill="#006d32"/>
  <rect x="275" y="144" width="9" height="9" rx="2.4" fill="#006d32"/>
  <rect x="286" y="78" width="9" height="9" rx="2.4" fill="#161b22"/>
  <rect x="286" y="89" width="9" height="9" rx="2.4" fill="#26a641"/>
  <rect x="286" y="100" width="9" height="9" rx="2.4" fill="#39d353"/>
  <rect x="286" y="111" width="9" height="9" rx="2.4" fill="#26a641"/>
  <rect x="286" y="122" width="9" height="9" rx="2.4" fill="#26a641"/>
  <rect x="286" y="133" width="9" height="9" rx="2.4" fill="#26a641"/>
  <rect x="286" y="144" width="9" height="9" rx="2.4" fill="#0e4429"/>
  <rect x="297" y="78" width="9" height="9" rx="2.4" fill="#161b22"/>
  <rect x="297" y="89" width="9" height="9" rx="2.4" fill="#161b22"/>
  <rect x="297" y="100" width="9" height="9" rx="2.4" fill="#161b22"/>
  <rect x="297" y="111" width="9" height="9" rx="2.4" fill="#161b22"/>
  <rect x="297" y="122" width="9" height="9" rx="2.4" fill="#161b22"/>
  <rect x="297" y="133" width="9" height="9" rx="2.4" fill="#161b22"/>
  <rect x="297" y="144" width="9" height="9" rx="2.4" fill="#0e4429"/>
  <rect x="308" y="78" width="9" height="9" rx="2.4" fill="#161b22"/>
  <rect x="308" y="89" width="9" height="9" rx="2.4" fill="#39d353"/>
  <rect x="308" y="100" width="9" height="9" rx="2.4" fill="#39d353"/>
  <rect x="308" y="111" width="9" height="9" rx="2.4" fill="#39d353"/>
  <rect x="308" y="122" width="9" height="9" rx="2.4" fill="#006d32"/>
  <rect x="308" y="133" width="9" height="9" rx="2.4" fill="#0e4429"/>
  <rect x="308" y="144" width="9" height="9" rx="2.4" fill="#161b22"/>
  <rect x="319" y="78" width="9" height="9" rx="2.4" fill="#161b22"/>
  <rect x="319" y="89" width="9" height="9" rx="2.4" fill="#006d32"/>
  <rect x="319" y="100" width="9" height="9" rx="2.4" fill="#39d353"/>
  <rect x="319" y="111" width="9" height="9" rx="2.4" fill="#26a641"/>
  <rect x="319" y="122" width="9" height="9" rx="2.4" fill="#0e4429"/>
  <rect x="319" y="133" width="9" height="9" rx="2.4" fill="#006d32"/>
  <rect x="319" y="144" width="9" height="9" rx="2.4" fill="#0e4429"/>
  <rect x="330" y="78" width="9" height="9" rx="2.4" fill="#161b22"/>
  <rect x="330" y="89" width="9" height="9" rx="2.4" fill="#39d353"/>
  <rect x="330" y="100" width="9" height="9" rx="2.4" fill="#26a641"/>
  <rect x="330" y="111" width="9" height="9" rx="2.4" fill="#006d32"/>
  <rect x="330" y="122" width="9" height="9" rx="2.4" fill="#0e4429"/>
  <rect x="330" y="133" width="9" height="9" rx="2.4" fill="#161b22"/>
  <rect x="330" y="144" width="9" height="9" rx="2.4" fill="#0e4429"/>
  <rect x="341" y="78" width="9" height="9" rx="2.4" fill="#0e4429"/>
  <rect x="341" y="89" width="9" height="9" rx="2.4" fill="#39d353"/>
  <rect x="341" y="100" width="9" height="9" rx="2.4" fill="#0e4429"/>
  <rect x="341" y="111" width="9" height="9" rx="2.4" fill="#0e4429"/>
  <rect x="341" y="122" width="9" height="9" rx="2.4" fill="#39d353"/>
  <rect x="341" y="133" width="9" height="9" rx="2.4" fill="#006d32"/>
  <rect x="341" y="144" width="9" height="9" rx="2.4" fill="#161b22"/>
  <rect x="352" y="78" width="9" height="9" rx="2.4" fill="#161b22"/>
  <rect x="352" y="89" width="9" height="9" rx="2.4" fill="#39d353"/>
  <rect x="352" y="100" width="9" height="9" rx="2.4" fill="#26a641"/>
  <rect x="352" y="111" width="9" height="9" rx="2.4" fill="#161b22"/>
  <rect x="352" y="122" width="9" height="9" rx="2.4" fill="#26a641"/>
  <rect x="352" y="133" width="9" height="9" rx="2.4" fill="#39d353"/>
  <rect x="352" y="144" width="9" height="9" rx="2.4" fill="#161b22"/>
  <rect x="363" y="78" width="9" height="9" rx="2.4" fill="#161b22"/>
  <rect x="363" y="89" width="9" height="9" rx="2.4" fill="#161b22"/>
  <rect x="363" y="100" width="9" height="9" rx="2.4" fill="#161b22"/>
  <rect x="363" y="111" width="9" height="9" rx="2.4" fill="#39d353"/>
  <rect x="363" y="122" width="9" height="9" rx="2.4" fill="#006d32"/>
  <rect x="363" y="133" width="9" height="9" rx="2.4" fill="#0e4429"/>
  <rect x="363" y="144" width="9" height="9" rx="2.4" fill="#006d32"/>
  <rect x="374" y="78" width="9" height="9" rx="2.4" fill="#0e4429"/>
  <rect x="374" y="89" width="9" height="9" rx="2.4" fill="#26a641"/>
  <rect x="374" y="100" width="9" height="9" rx="2.4" fill="#161b22"/>
  <rect x="374" y="111" width="9" height="9" rx="2.4" fill="#161b22"/>
  <rect x="374" y="122" width="9" height="9" rx="2.4" fill="#161b22"/>
  <rect x="374" y="133" width="9" height="9" rx="2.4" fill="#161b22"/>
  <rect x="374" y="144" width="9" height="9" rx="2.4" fill="#161b22"/>
  <rect x="385" y="78" width="9" height="9" rx="2.4" fill="#161b22"/>
  <rect x="385" y="89" width="9" height="9" rx="2.4" fill="#161b22"/>
  <rect x="385" y="100" width="9" height="9" rx="2.4" fill="#39d353"/>
  <rect x="385" y="111" width="9" height="9" rx="2.4" fill="#161b22"/>
  <rect x="385" y="122" width="9" height="9" rx="2.4" fill="#0e4429"/>
  <rect x="385" y="133" width="9" height="9" rx="2.4" fill="#006d32"/>
  <rect x="385" y="144" width="9" height="9" rx="2.4" fill="#006d32"/>
  <rect x="396" y="78" width="9" height="9" rx="2.4" fill="#006d32"/>
  <rect x="396" y="89" width="9" height="9" rx="2.4" fill="#0e4429"/>
  <rect x="396" y="100" width="9" height="9" rx="2.4" fill="#0e4429"/>
  <rect x="396" y="111" width="9" height="9" rx="2.4" fill="#0e4429"/>
  <rect x="396" y="122" width="9" height="9" rx="2.4" fill="#161b22"/>
  <rect x="396" y="133" width="9" height="9" rx="2.4" fill="#0e4429"/>
  <rect x="396" y="144" width="9" height="9" rx="2.4" fill="#161b22"/>
  <rect x="407" y="78" width="9" height="9" rx="2.4" fill="#0e4429"/>
  <rect x="407" y="89" width="9" height="9" rx="2.4" fill="#161b22"/>
  <rect x="407" y="100" width="9" height="9" rx="2.4" fill="#0e4429"/>
  <rect x="407" y="111" width="9" height="9" rx="2.4" fill="#006d32"/>
  <rect x="407" y="122" width="9" height="9" rx="2.4" fill="#0e4429"/>
  <rect x="407" y="133" width="9" height="9" rx="2.4" fill="#161b22"/>
  <rect x="407" y="144" width="9" height="9" rx="2.4" fill="#161b22"/>
  <rect x="418" y="78" width="9" height="9" rx="2.4" fill="#0e4429"/>
  <rect x="418" y="89" width="9" height="9" rx="2.4" fill="#161b22"/>
  <rect x="418" y="100" width="9" height="9" rx="2.4" fill="#0e4429"/>
  <rect x="418" y="111" width="9" height="9" rx="2.4" fill="#161b22"/>
  <rect x="418" y="122" width="9" height="9" rx="2.4" fill="#161b22"/>
  <rect x="418" y="133" width="9" height="9" rx="2.4" fill="#26a641"/>
  <rect x="418" y="144" width="9" height="9" rx="2.4" fill="#161b22"/>
  <rect x="429" y="78" width="9" height="9" rx="2.4" fill="#0e4429"/>
  <rect x="429" y="89" width="9" height="9" rx="2.4" fill="#39d353"/>
  <rect x="429" y="100" width="9" height="9" rx="2.4" fill="#0e4429"/>
  <rect x="429" y="111" width="9" height="9" rx="2.4" fill="#006d32"/>
  <rect x="429" y="122" width="9" height="9" rx="2.4" fill="#0e4429"/>
  <rect x="429" y="133" width="9" height="9" rx="2.4" fill="#0e4429"/>
  <rect x="429" y="144" width="9" height="9" rx="2.4" fill="#0e4429"/>
  <rect x="440" y="78" width="9" height="9" rx="2.4" fill="#161b22"/>
  <rect x="440" y="89" width="9" height="9" rx="2.4" fill="#0e4429"/>
  <rect x="440" y="100" width="9" height="9" rx="2.4" fill="#39d353"/>
  <rect x="440" y="111" width="9" height="9" rx="2.4" fill="#006d32"/>
  <rect x="440" y="122" width="9" height="9" rx="2.4" fill="#26a641"/>
  <rect x="440" y="133" width="9" height="9" rx="2.4" fill="#39d353"/>
  <rect x="440" y="144" width="9" height="9" rx="2.4" fill="#161b22"/>
  <rect x="451" y="78" width="9" height="9" rx="2.4" fill="#006d32"/>
  <rect x="451" y="89" width="9" height="9" rx="2.4" fill="#26a641"/>
  <rect x="451" y="100" width="9" height="9" rx="2.4" fill="#161b22"/>
  <rect x="451" y="111" width="9" height="9" rx="2.4" fill="#161b22"/>
  <rect x="451" y="122" width="9" height="9" rx="2.4" fill="#0e4429"/>
  <rect x="451" y="133" width="9" height="9" rx="2.4" fill="#161b22"/>
  <rect x="451" y="144" width="9" height="9" rx="2.4" fill="#161b22"/>
  <rect x="462" y="78" width="9" height="9" rx="2.4" fill="#161b22"/>
  <rect x="462" y="89" width="9" height="9" rx="2.4" fill="#26a641"/>
  <rect x="462" y="100" width="9" height="9" rx="2.4" fill="#26a641"/>
  <rect x="462" y="111" width="9" height="9" rx="2.4" fill="#161b22"/>
  <rect x="462" y="122" width="9" height="9" rx="2.4" fill="#006d32"/>
  <rect x="462" y="133" width="9" height="9" rx="2.4" fill="#006d32"/>
  <rect x="462" y="144" width="9" height="9" rx="2.4" fill="#161b22"/>
  <rect x="473" y="78" width="9" height="9" rx="2.4" fill="#26a641"/>
  <rect x="473" y="89" width="9" height="9" rx="2.4" fill="#0e4429"/>
  <rect x="473" y="100" width="9" height="9" rx="2.4" fill="#39d353"/>
  <rect x="473" y="111" width="9" height="9" rx="2.4" fill="#006d32"/>
  <rect x="473" y="122" width="9" height="9" rx="2.4" fill="#006d32"/>
  <rect x="473" y="133" width="9" height="9" rx="2.4" fill="#39d353"/>
  <rect x="473" y="144" width="9" height="9" rx="2.4" fill="#006d32"/>
  <rect x="484" y="78" width="9" height="9" rx="2.4" fill="#161b22"/>
  <rect x="484" y="89" width="9" height="9" rx="2.4" fill="#0e4429"/>
  <rect x="484" y="100" width="9" height="9" rx="2.4" fill="#161b22"/>
  <rect x="484" y="111" width="9" height="9" rx="2.4" fill="#161b22"/>
  <rect x="484" y="122" width="9" height="9" rx="2.4" fill="#161b22"/>
  <rect x="484" y="133" width="9" height="9" rx="2.4" fill="#006d32"/>
  <rect x="484" y="144" width="9" height="9" rx="2.4" fill="#161b22"/>
  <rect x="495" y="78" width="9" height="9" rx="2.4" fill="#161b22"/>
  <rect x="495" y="89" width="9" height="9" rx="2.4" fill="#161b22"/>
  <rect x="495" y="100" width="9" height="9" rx="2.4" fill="#161b22"/>
  <rect x="495" y="111" width="9" height="9" rx="2.4" fill="#006d32"/>
  <rect x="495" y="122" width="9" height="9" rx="2.4" fill="#0e4429"/>
  <rect x="495" y="133" width="9" height="9" rx="2.4" fill="#161b22"/>
  <rect x="495" y="144" width="9" height="9" rx="2.4" fill="#006d32"/>
  <rect x="506" y="78" width="9" height="9" rx="2.4" fill="#006d32"/>
  <rect x="506" y="89" width="9" height="9" rx="2.4" fill="#161b22"/>
  <rect x="506" y="100" width="9" height="9" rx="2.4" fill="#161b22"/>
  <rect x="506" y="111" width="9" height="9" rx="2.4" fill="#161b22"/>
  <rect x="506" y="122" width="9" height="9" rx="2.4" fill="#26a641"/>
  <rect x="506" y="133" width="9" height="9" rx="2.4" fill="#161b22"/>
  <rect x="506" y="144" width="9" height="9" rx="2.4" fill="#161b22"/>
  <rect x="517" y="78" width="9" height="9" rx="2.4" fill="#006d32"/>
  <rect x="517" y="89" width="9" height="9" rx="2.4" fill="#26a641"/>
  <rect x="517" y="100" width="9" height="9" rx="2.4" fill="#161b22"/>
  <rect x="517" y="111" width="9" height="9" rx="2.4" fill="#161b22"/>
  <rect x="517" y="122" width="9" height="9" rx="2.4" fill="#39d353"/>
  <rect x="517" y="133" width="9" height="9" rx="2.4" fill="#0e4429"/>
  <rect x="517" y="144" width="9" height="9" rx="2.4" fill="#0e4429"/>
  <rect x="528" y="78" width="9" height="9" rx="2.4" fill="#161b22"/>
  <rect x="528" y="89" width="9" height="9" rx="2.4" fill="#006d32"/>
  <rect x="528" y="100" width="9" height="9" rx="2.4" fill="#0e4429"/>
  <rect x="528" y="111" width="9" height="9" rx="2.4" fill="#161b22"/>
  <rect x="528" y="122" width="9" height="9" rx="2.4" fill="#39d353"/>
  <rect x="528" y="133" width="9" height="9" rx="2.4" fill="#006d32"/>
  <rect x="528" y="144" width="9" height="9" rx="2.4" fill="#0e4429"/>
  <rect x="539" y="78" width="9" height="9" rx="2.4" fill="#0e4429"/>
  <rect x="539" y="89" width="9" height="9" rx="2.4" fill="#161b22"/>
  <rect x="539" y="100" width="9" height="9" rx="2.4" fill="#26a641"/>
  <rect x="539" y="111" width="9" height="9" rx="2.4" fill="#0e4429"/>
  <rect x="539" y="122" width="9" height="9" rx="2.4" fill="#161b22"/>
  <rect x="539" y="133" width="9" height="9" rx="2.4" fill="#0e4429"/>
  <rect x="539" y="144" width="9" height="9" rx="2.4" fill="#006d32"/>
  <rect x="550" y="78" width="9" height="9" rx="2.4" fill="#161b22"/>
  <rect x="550" y="89" width="9" height="9" rx="2.4" fill="#0e4429"/>
  <rect x="550" y="100" width="9" height="9" rx="2.4" fill="#161b22"/>
  <rect x="550" y="111" width="9" height="9" rx="2.4" fill="#161b22"/>
  <rect x="550" y="122" width="9" height="9" rx="2.4" fill="#161b22"/>
  <rect x="550" y="133" width="9" height="9" rx="2.4" fill="#161b22"/>
  <rect x="550" y="144" width="9" height="9" rx="2.4" fill="#161b22"/>
  <rect x="561" y="78" width="9" height="9" rx="2.4" fill="#161b22"/>
  <rect x="561" y="89" width="9" height="9" rx="2.4" fill="#006d32"/>
  <rect x="561" y="100" width="9" height="9" rx="2.4" fill="#161b22"/>
  <rect x="561" y="111" width="9" height="9" rx="2.4" fill="#0e4429"/>
  <rect x="561" y="122" width="9" height="9" rx="2.4" fill="#161b22"/>
  <rect x="561" y="133" width="9" height="9" rx="2.4" fill="#161b22"/>
  <rect x="561" y="144" width="9" height="9" rx="2.4" fill="#161b22"/>
  <rect x="572" y="78" width="9" height="9" rx="2.4" fill="#161b22"/>
  <rect x="572" y="89" width="9" height="9" rx="2.4" fill="#006d32"/>
  <rect x="572" y="100" width="9" height="9" rx="2.4" fill="#0e4429"/>
  <rect x="572" y="111" width="9" height="9" rx="2.4" fill="#161b22"/>
  <rect x="572" y="122" width="9" height="9" rx="2.4" fill="#0e4429"/>
  <rect x="572" y="133" width="9" height="9" rx="2.4" fill="#39d353"/>
  <rect x="572" y="144" width="9" height="9" rx="2.4" fill="#161b22"/>
  <rect x="583" y="78" width="9" height="9" rx="2.4" fill="#161b22"/>
  <rect x="583" y="89" width="9" height="9" rx="2.4" fill="#0e4429"/>
  <rect x="583" y="100" width="9" height="9" rx="2.4" fill="#26a641"/>
  <rect x="583" y="111" width="9" height="9" rx="2.4" fill="#0e4429"/>
  <rect x="583" y="122" width="9" height="9" rx="2.4" fill="#0e4429"/>
  <rect x="583" y="133" width="9" height="9" rx="2.4" fill="#006d32"/>
  <rect x="583" y="144" width="9" height="9" rx="2.4" fill="#006d32"/>
  <rect x="594" y="78" width="9" height="9" rx="2.4" fill="#0e4429"/>
  <rect x="594" y="89" width="9" height="9" rx="2.4" fill="#006d32"/>
  <rect x="594" y="100" width="9" height="9" rx="2.4" fill="#006d32"/>
  <rect x="594" y="111" width="9" height="9" rx="2.4" fill="#0e4429"/>
  <rect x="594" y="122" width="9" height="9" rx="2.4" fill="#161b22"/>
  <rect x="594" y="133" width="9" height="9" rx="2.4" fill="#161b22"/>
  <rect x="594" y="144" width="9" height="9" rx="2.4" fill="#161b22"/>
  <rect x="605" y="78" width="9" height="9" rx="2.4" fill="#0e4429"/>
  <rect x="605" y="89" width="9" height="9" rx="2.4" fill="#161b22"/>
  <rect x="605" y="100" width="9" height="9" rx="2.4" fill="#161b22"/>
  <rect x="605" y="111" width="9" height="9" rx="2.4" fill="#161b22"/>
  <rect x="605" y="122" width="9" height="9" rx="2.4" fill="#26a641"/>
  <rect x="605" y="133" width="9" height="9" rx="2.4" fill="#26a641"/>
  <rect x="605" y="144" width="9" height="9" rx="2.4" fill="#161b22"/>
  <rect x="616" y="78" width="9" height="9" rx="2.4" fill="#161b22"/>
  <rect x="616" y="89" width="9" height="9" rx="2.4" fill="#161b22"/>
  <rect x="616" y="100" width="9" height="9" rx="2.4" fill="#0e4429"/>
  <rect x="616" y="111" width="9" height="9" rx="2.4" fill="#161b22"/>
  <rect x="616" y="122" width="9" height="9" rx="2.4" fill="#0e4429"/>
  <rect x="616" y="133" width="9" height="9" rx="2.4" fill="#161b22"/>
  <rect x="616" y="144" width="9" height="9" rx="2.4" fill="#006d32"/>
  <text x="521" y="188" class="axis" text-anchor="end">Less</text>
  <rect x="527" y="181" width="9" height="9" rx="2.4" fill="#161b22"/>
  <rect x="539" y="181" width="9" height="9" rx="2.4" fill="#0e4429"/>
  <rect x="551" y="181" width="9" height="9" rx="2.4" fill="#006d32"/>
  <rect x="563" y="181" width="9" height="9" rx="2.4" fill="#26a641"/>
  <rect x="575" y="181" width="9" height="9" rx="2.4" fill="#39d353"/>
  <text x="593" y="188" class="axis">More</text>
</svg>
